<?xml version="1.0" encoding="UTF-8"?>
<svg version="1.1" xmlns="http://www.w3.org/2000/svg" width="280" height="64">
<path d="M0 0 C92.4 0 184.8 0 280 0 C280 21.12 280 42.24 280 64 C187.6 64 95.2 64 0 64 C0 42.88 0 21.76 0 0 Z " fill="#FEFEFE" transform="translate(0,0)"/>
<path d="M0 0 C0.66 0 1.32 0 2 0 C2.66 1.65 3.32 3.3 4 5 C5.70840281 3.36587557 6.93453047 2.13093906 8 0 C9.32 0.66 10.64 1.32 12 2 C11.67 3.65 11.34 5.3 11 7 C13.475 7.495 13.475 7.495 16 8 C16 9.98 16 11.96 16 14 C14.35 14.33 12.7 14.66 11 15 C11.33 16.65 11.66 18.3 12 20 C10.02 20.99 10.02 20.99 8 22 C7.34 20.68 6.68 19.36 6 18 C5.34 18 4.68 18 4 18 C3.34 19.32 2.68 20.64 2 22 C0.68 21.34 -0.64 20.68 -2 20 C-1.49396008 17.83125748 -1.00016187 16.00032373 0 14 C-1.98 14 -3.96 14 -6 14 C-6 12.02 -6 10.04 -6 8 C-4.02 8 -2.04 8 0 8 C-0.66 7.01 -1.32 6.02 -2 5 C-1.48275862 1.48275862 -1.48275862 1.48275862 0 0 Z " fill="#8CB4B6" transform="translate(16,12)"/>
<path d="M0 0 C1.09054688 0.02320312 2.18109375 0.04640625 3.3046875 0.0703125 C4.40039062 0.08835937 5.49609375 0.10640625 6.625 0.125 C7.46804687 0.14820312 8.31109375 0.17140625 9.1796875 0.1953125 C9.1796875 1.8453125 9.1796875 3.4953125 9.1796875 5.1953125 C10.4996875 5.1953125 11.8196875 5.1953125 13.1796875 5.1953125 C13.8396875 3.5453125 14.4996875 1.8953125 15.1796875 0.1953125 C15.8396875 0.1953125 16.4996875 0.1953125 17.1796875 0.1953125 C16.8084375 1.0615625 16.4371875 1.9278125 16.0546875 2.8203125 C15.03528702 6.75228576 15.60656254 8.52468759 17.1796875 12.1953125 C16.5196875 12.1953125 15.8596875 12.1953125 15.1796875 12.1953125 C14.9321875 11.5559375 14.6846875 10.9165625 14.4296875 10.2578125 C13.36406317 8.00789709 13.36406317 8.00789709 11.0546875 7.4453125 C10.4359375 7.3628125 9.8171875 7.2803125 9.1796875 7.1953125 C9.1796875 8.8453125 9.1796875 10.4953125 9.1796875 12.1953125 C7.22165243 12.24920337 5.26319841 12.28805467 3.3046875 12.3203125 C2.21414062 12.34351563 1.12359375 12.36671875 0 12.390625 C-2.8203125 12.1953125 -2.8203125 12.1953125 -4.8203125 10.1953125 C-5.0859375 8.3203125 -5.0859375 8.3203125 -5.0703125 6.1953125 C-5.07546875 5.4940625 -5.080625 4.7928125 -5.0859375 4.0703125 C-4.60918397 0.70499345 -3.21465692 0.22262167 0 0 Z " fill="#F4F4F4" transform="translate(76.8203125,31.8046875)"/>
<path d="M0 0 C1.9375 1.125 1.9375 1.125 3 3 C3.38976435 6.11811483 3.50422245 8.11019567 1.9375 10.875 C-1.14071911 12.66235303 -3.52906068 12.43386742 -7 12 C-9.42061048 9.89172636 -9.9127007 8.59654522 -10.375 5.4375 C-10 3 -10 3 -8.9375 1.1875 C-5.90624457 -0.67036623 -3.46577141 -0.37133265 0 0 Z " fill="#3A3A3A" transform="translate(67,32)"/>
<path d="M0 0 C2.05078125 0.03255208 4.1015625 0.06510417 6.15234375 0.09765625 C6.15234375 0.75765625 6.15234375 1.41765625 6.15234375 2.09765625 C3.84234375 2.42765625 1.53234375 2.75765625 -0.84765625 3.09765625 C-0.84765625 3.42765625 -0.84765625 3.75765625 -0.84765625 4.09765625 C1.79234375 4.75765625 4.43234375 5.41765625 7.15234375 6.09765625 C6.27734375 10.97265625 6.27734375 10.97265625 5.15234375 12.09765625 C2.48175524 12.23880786 -0.17197863 12.14012732 -2.84765625 12.09765625 C-2.84765625 11.43765625 -2.84765625 10.77765625 -2.84765625 10.09765625 C-1.71328125 9.97390625 -0.57890625 9.85015625 0.58984375 9.72265625 C1.76546875 9.51640625 2.94109375 9.31015625 4.15234375 9.09765625 C4.48234375 8.43765625 4.81234375 7.77765625 5.15234375 7.09765625 C3.48171875 7.15953125 3.48171875 7.15953125 1.77734375 7.22265625 C-1.84765625 7.09765625 -1.84765625 7.09765625 -3.84765625 5.09765625 C-3.1001104 0.16385362 -3.1001104 0.16385362 0 0 Z " fill="#2A2A2A" transform="translate(36.84765625,31.90234375)"/>
<path d="M0 0 C2.01822917 0.06510417 4.03645833 0.13020833 6.0546875 0.1953125 C6.0546875 0.8553125 6.0546875 1.5153125 6.0546875 2.1953125 C3.7446875 2.5253125 1.4346875 2.8553125 -0.9453125 3.1953125 C-1.2753125 5.1753125 -1.6053125 7.1553125 -1.9453125 9.1953125 C0.6946875 9.1953125 3.3346875 9.1953125 6.0546875 9.1953125 C6.0546875 10.1853125 6.0546875 11.1753125 6.0546875 12.1953125 C0 12.390625 0 12.390625 -1.9453125 12.1953125 C-3.9453125 10.1953125 -3.9453125 10.1953125 -4.2109375 8.3203125 C-4.20578125 7.6190625 -4.200625 6.9178125 -4.1953125 6.1953125 C-4.20046875 5.4940625 -4.205625 4.7928125 -4.2109375 4.0703125 C-3.81936686 1.30628445 -2.77581673 0.27869646 0 0 Z " fill="#4B4B4B" transform="translate(75.9453125,31.8046875)"/>
<path d="M0 0 C0.66 0 1.32 0 2 0 C2 1.65 2 3.3 2 5 C3.32 5 4.64 5 6 5 C6.66 3.35 7.32 1.7 8 0 C8.66 0 9.32 0 10 0 C9.62875 0.86625 9.2575 1.7325 8.875 2.625 C7.85559952 6.55697326 8.42687504 8.32937509 10 12 C9.34 12 8.68 12 8 12 C7.62875 11.0409375 7.62875 11.0409375 7.25 10.0625 C6.18437567 7.81258459 6.18437567 7.81258459 3.875 7.25 C3.25625 7.1675 2.6375 7.085 2 7 C2 8.65 2 10.3 2 12 C1.34 12 0.68 12 0 12 C0 8.04 0 4.08 0 0 Z " fill="#1A1A1A" transform="translate(84,32)"/>
<path d="M0 0 C2.5625 0.1875 2.5625 0.1875 4.5625 2.1875 C4.00694444 6.74305556 4.00694444 6.74305556 2.5625 8.1875 C0.0625 8.3125 0.0625 8.3125 -2.4375 8.1875 C-3.4375 7.1875 -3.4375 7.1875 -3.5625 4.1875 C-3.39891479 0.26145498 -3.39891479 0.26145498 0 0 Z " fill="#E7E7E7" transform="translate(63.4375,33.8125)"/>
<path d="M0 0 C0.66 0 1.32 0 2 0 C4.67927341 4.01891012 4.15601248 6.24161923 4 11 C2.02 11 0.04 11 -2 11 C-2.25 3.375 -2.25 3.375 0 0 Z " fill="#202020" transform="translate(20,33)"/>
<path d="M0 0 C6.0546875 -0.1953125 6.0546875 -0.1953125 8 0 C8.66 0.66 9.32 1.32 10 2 C9.625 4.625 9.625 4.625 9 7 C6.69 7 4.38 7 2 7 C2 8.65 2 10.3 2 12 C1.34 12 0.68 12 0 12 C-0.04254356 10.00045254 -0.04080783 7.99958364 0 6 C1 5 1 5 4.5625 4.9375 C5.696875 4.958125 6.83125 4.97875 8 5 C7.67 4.34 7.34 3.68 7 3 C4.67843403 2.59270772 2.3431213 2.25561323 0 2 C0 1.34 0 0.68 0 0 Z " fill="#202020" transform="translate(46,32)"/>
<path d="M0 0 C2.4375 0.6875 2.4375 0.6875 5 2 C5.8125 4.625 5.8125 4.625 6 7 C4.02 7.99 4.02 7.99 2 9 C0.14223235 5.86501708 -0.20140476 3.62528568 0 0 Z " fill="#268B63" transform="translate(22,25)"/>
<path d="M0 0 C1.32 0.66 2.64 1.32 4 2 C3.8125 4.375 3.8125 4.375 3 7 C0.4375 8.3125 0.4375 8.3125 -2 9 C-1.125 2.25 -1.125 2.25 0 0 Z " fill="#49C1A2" transform="translate(24,12)"/>
<path d="M0 0 C0.66 0 1.32 0 2 0 C4.29013653 3.4352048 4.17842973 4.985331 4 9 C2.125 8.6875 2.125 8.6875 0 8 C-2 5 -2 5 -1.6875 2.875 C-1 1 -1 1 0 0 Z " fill="#477EA9" transform="translate(16,12)"/>
<path d="M0 0 C-0.875 6.75 -0.875 6.75 -2 9 C-3.32 8.34 -4.64 7.68 -6 7 C-5.37162381 3.35541809 -4.14650034 0 0 0 Z " fill="#138056" transform="translate(20,25)"/>
<path d="M0 0 C2.01822917 0.06510417 4.03645833 0.13020833 6.0546875 0.1953125 C6.0546875 0.8553125 6.0546875 1.5153125 6.0546875 2.1953125 C3.7446875 2.5253125 1.4346875 2.8553125 -0.9453125 3.1953125 C-0.9453125 3.5253125 -0.9453125 3.8553125 -0.9453125 4.1953125 C2.0246875 4.6903125 2.0246875 4.6903125 5.0546875 5.1953125 C5.0546875 5.5253125 5.0546875 5.8553125 5.0546875 6.1953125 C2.4146875 6.1953125 -0.2253125 6.1953125 -2.9453125 6.1953125 C-3.5703125 4.3203125 -3.5703125 4.3203125 -3.9453125 2.1953125 C-1.9453125 0.1953125 -1.9453125 0.1953125 0 0 Z " fill="#181818" transform="translate(36.9453125,31.8046875)"/>
<path d="M0 0 C0 1.32 0 2.64 0 4 C-6.75 4.125 -6.75 4.125 -9 3 C-9 2.34 -9 1.68 -9 1 C-6.04335481 -0.4783226 -3.25770263 -0.06032783 0 0 Z " fill="#2A9F78" transform="translate(32,21)"/>
<path d="M0 0 C6.75 -0.125 6.75 -0.125 9 1 C9 1.66 9 2.32 9 3 C6.04335481 4.4783226 3.25770263 4.06032783 0 4 C0 2.68 0 1.36 0 0 Z " fill="#155A8C" transform="translate(10,21)"/>
<path d="M0 0 C2.01822917 0.06510417 4.03645833 0.13020833 6.0546875 0.1953125 C6.0546875 0.8553125 6.0546875 1.5153125 6.0546875 2.1953125 C3.7446875 2.5253125 1.4346875 2.8553125 -0.9453125 3.1953125 C-1.6053125 4.8453125 -2.2653125 6.4953125 -2.9453125 8.1953125 C-3.2753125 8.1953125 -3.6053125 8.1953125 -3.9453125 8.1953125 C-4.0703125 5.3203125 -4.0703125 5.3203125 -3.9453125 2.1953125 C-1.9453125 0.1953125 -1.9453125 0.1953125 0 0 Z " fill="#1F1F1F" transform="translate(75.9453125,31.8046875)"/>
<path d="M0 0 C3.375 -0.125 3.375 -0.125 7 0 C9 2 9 2 9.125 5.125 C9.08375 6.07375 9.0425 7.0225 9 8 C8.690625 7.360625 8.38125 6.72125 8.0625 6.0625 C7.1654837 4.06389179 7.1654837 4.06389179 6 3 C3.67182036 2.63239269 1.3381615 2.29758419 -1 2 C-0.67 1.34 -0.34 0.68 0 0 Z " fill="#181818" transform="translate(60,32)"/>
<path d="M0 0 C0.33 1.32 0.66 2.64 1 4 C1.66 3.67 2.32 3.34 3 3 C5.6723621 2.86584528 8.32250488 2.95681459 11 3 C11 3.33 11 3.66 11 4 C6.545 4.495 6.545 4.495 2 5 C2 5.66 2 6.32 2 7 C1.01 7 0.02 7 -1 7 C-0.67 4.69 -0.34 2.38 0 0 Z " fill="#9FD2C3" transform="translate(21,17)"/>
</svg>
